PathFileType	4	(X/Y/Z)	Run_300 02
DataRate	CameraRate	NumFrames	NumMarkers	Units	OrigDataRate	OrigDataStartFrame	OrigNumFrames
100	100	4	42	mm	100	194	128
Frame#	Time	RASI			LPSI			RPSI			RTH1			RTH2			RTH3			LTH1			LTH2			LTH3			RTB1			RTB2			RTB3			LTB1			LTB2			LTB3			RCAL			RTOE			RMT5			LCAL			LTOE			LMT5			LACR			RACR			CLAV			C7			RUA1			RUA2			RUA3			RLEL			RMEL			LUA1			LUA2			LUA3			LLEL			LMEL			RFAsuperior			RFAradius			RFAulna			LFAsuperior			LFAradius			LFAulna			LASI			
		X1	Y1	Z1	X2	Y2	Z2	X3	Y3	Z3	X4	Y4	Z4	X5	Y5	Z5	X6	Y6	Z6	X7	Y7	Z7	X8	Y8	Z8	X9	Y9	Z9	X10	Y10	Z10	X11	Y11	Z11	X12	Y12	Z12	X13	Y13	Z13	X14	Y14	Z14	X15	Y15	Z15	X16	Y16	Z16	X17	Y17	Z17	X18	Y18	Z18	X19	Y19	Z19	X20	Y20	Z20	X21	Y21	Z21	X22	Y22	Z22	X23	Y23	Z23	X24	Y24	Z24	X25	Y25	Z25	X26	Y26	Z26	X27	Y27	Z27	X28	Y28	Z28	X29	Y29	Z29	X30	Y30	Z30	X31	Y31	Z31	X32	Y32	Z32	X33	Y33	Z33	X34	Y34	Z34	X35	Y35	Z35	X36	Y36	Z36	X37	Y37	Z37	X38	Y38	Z38	X39	Y39	Z39	X40	Y40	Z40	X41	Y41	Z41	X42	Y42	Z42	

190	2.41	981.452214	1006.893164	-223.623058	809.586095	1075.379654	-395.665868	816.1752310000001	1066.059507	-282.374315	910.6255	886.2498399999999	-180.14244	872.405864	738.89068	-190.063308	931.811859	590.263088	-190.893385	917.583817	893.26444	-526.483072	895.445406	730.483972	-470.418898	984.2848729999999	616.348218	-466.35894	840.916277	402.116018	-249.409593	776.881158	470.9715	-181.836757	651.003094	389.90977	-254.930041	1054.050693	402.591845	-382.835663	946.3111239999999	313.767963	-428.189949	965.462006	202.442887	-357.530195	505.96708	483.142919	-250.884501	523.330116	242.41852	-278.645966	486.760669	281.75028	-187.241304	802.443448	101.081988	-324.642261	1039.71576	73.01838600000001	-318.000236	988.231143	37.53754	-412.991025	941.652521	1489.532643	-519.725337	992.261763	1481.035742	-195.48015	1035.569057	1447.875871	-331.937268	911.1640619999999	1518.444099	-356.445074	882.217663	1393.779754	-122.603299	922.308077	1330.392459	-96.102625	852.299139	1262.173958	-48.440239	815.754701	1211.070927	-16.643218	800.489696	1182.784523	-99.868195	830.140202	1401.138554	-559.902799	843.5321300000001	1318.486846	-580.8207609999999	759.6407369999999	1264.159263	-590.059746	727.763135	1203.138507	-604.004072	728.061332	1187.357077	-514.9997059999999	893.435594	1130.299071	-20.99374	1018.555208	1041.329729	-122.11894	990.4951150000001	1010.878912	-67.38342299999999	782.024479	1136.332235	-607.343416	962.363707	1105.501664	-547.883717	935.863615	1045.039776	-574.83752	965.743906	1009.732786	-459.523132	
191	2.42	978.695194	1005.099301	-222.381054	808.6075939999999	1073.496562	-395.963368	813.967979	1064.096158	-282.85319	909.543152	884.003461	-179.964918	878.808871	735.715727	-189.33821	946.415737	590.081518	-189.79179	916.654796	890.840376	-525.247956	888.673592	728.453354	-469.152721	974.396894	611.597821	-464.654156	862.196204	402.175328	-248.743272	797.402604	468.645137	-179.686044	671.775294	388.013599	-253.047029	1036.360168	395.136259	-380.619728	926.279523	309.666492	-426.363103	939.8889789999999	198.483381	-355.682258	523.848106	478.567276	-247.69463	548.699759	238.210434	-273.347416	514.046464	277.605575	-180.776047	772.727247	101.798766	-324.595529	1009.798593	71.965648	-317.430111	958.451037	38.519255	-414.695569	942.301568	1486.041702	-520.098684	989.401463	1478.01916	-194.717514	1034.414978	1444.830166	-330.651551	910.090562	1515.694696	-356.365172	877.131908	1391.409358	-123.916103	915.726827	1328.288366	-96.35499299999999	842.482889	1261.632419	-50.30871	804.819918	1210.774016	-19.028269	791.081131	1182.031396	-102.290071	834.46503	1392.289735	-559.556407	851.479252	1310.473547	-582.367149	770.433601	1252.580009	-594.930338	741.920308	1190.533753	-610.207699	739.606594	1174.409139	-521.349789	880.05746	1126.743927	-19.077159	1002.837277	1027.4245	-114.312748	971.9046489999999	1001.289115	-58.744341	797.198811	1124.505144	-612.151371	975.159609	1092.91076	-546.827503	950.330815	1032.162953	-574.328716	964.700001	1007.100572	-458.764584	
192	2.43	976.111092	1004.109678	-221.164264	807.874854	1073.602122	-396.598246	811.903807	1063.510336	-283.662274	908.838328	883.026267	-178.677067	885.527801	734.463583	-188.226307	961.537537	592.182054	-188.944603	915.948356	889.850417	-524.341315	880.920442	728.2159380000001	-468.812253	962.804223	608.119779	-463.191151	883.812266	403.491642	-248.655581	818.037021	466.985424	-178.430686	692.916397	385.601839	-251.551637	1016.793664	389.535217	-378.531528	904.4485570000001	307.58776	-424.786034	913.672952	196.127757	-354.407074	541.57159	471.787993	-244.6025	576.482816	232.485123	-268.854564	543.0014179999999	271.512486	-175.223103	742.976365	102.806219	-324.437686	979.827287	71.533739	-317.167802	928.448256	39.358672	-415.63702	943.661736	1484.486203	-520.32038	986.588928	1476.347215	-194.049897	1033.169107	1443.302781	-329.302937	908.757697	1514.330863	-356.487936	871.723809	1391.054524	-125.247157	908.860687	1328.140341	-96.514582	832.597784	1263.481173	-52.168313	793.6560449999999	1213.14639	-21.148262	781.455378	1183.940223	-104.437262	838.008591	1386.608402	-558.903637	859.14368	1305.889028	-583.932184	781.246044	1244.590601	-598.87951	756.11555	1181.671444	-615.39808	751.264098	1165.109017	-526.594159	865.971896	1126.127998	-17.328233	986.321067	1017.974925	-107.412526	952.946084	995.412025	-51.353583	813.054633	1117.163297	-616.147057	988.4982	1085.32143	-545.028992	965.851871	1024.147882	-573.273046	963.8988890000001	1006.45336	-458.339836	
193	2.44	973.566725	1003.843322	-220.73672	807.531665	1075.225998	-397.316951	810.21599	1064.291923	-284.419532	909.783803	883.7219700000001	-176.709771	892.282419	735.2827119999999	-187.231257	976.5695480000001	596.631903	-188.460163	914.8759669999999	889.9472490000001	-523.820689	872.55154	729.286454	-469.436352	949.755634	606.01729	-462.033785	905.035572	406.190848	-249.119623	838.338436	466.563833	-177.724579	714.799349	382.444125	-250.139523	995.479161	385.722903	-376.839813	880.871786	307.206928	-423.580896	886.900306	195.137738	-353.794282	559.199298	462.748418	-241.64709	606.461198	225.476084	-264.893664	572.961324	263.646668	-170.658937	713.32637	104.062104	-324.079602	950.009275	71.395444	-317.249876	898.260746	39.711415	-415.737086	945.775834	1484.831584	-520.369377	983.557374	1476.426897	-193.3611	1031.815757	1443.591363	-327.938318	907.638642	1514.758988	-356.992524	865.934995	1392.889844	-126.538053	901.535703	1330.151311	-96.41997000000001	822.65405	1267.706568	-53.719686	782.209196	1218.280445	-22.865857	771.595588	1188.641559	-106.150379	841.786917	1384.023834	-559.421217	866.324976	1304.364033	-585.453607	791.087941	1240.454086	-601.694873	768.857083	1176.854451	-619.426706	761.572773	1159.911683	-530.589942	851.046572	1128.408332	-15.78958	969.7330909999999	1014.078693	-101.788703	934.2006720000001	993.863411	-45.899479	827.795392	1114.007705	-618.91299	1001.431156	1084.424712	-542.804288	980.998825	1022.821809	-571.8893420000001	963.488618	1007.325589	-458.000983	
